<svg id="b47a85d8-bc81-4ebb-bbd5-b1cd7e24af8b" data-name="Calque 1" xmlns="http://www.w3.org/2000/svg" viewBox="0 0 159.23 183.2"><polygon points="0.41 45.8 0.41 137.4 79.74 183.2 159.06 137.4 159.06 45.8 79.74 0 0.41 45.8" style="fill:#4795d1"/><polygon points="159.06 137.4 79.74 183.2 0.41 137.4 79.74 91.6 159.06 137.4" style="fill:#202121"/><path d="M133.07,66.39,99,43.23l0-.11-.11,0L97,41.84H64.48l-2,1.28h0v0L26.4,66.39H57.57L44.2,129.9l4.67,1L62.44,66.39H99l13.58,64.49,4.66-1L103.91,66.39Zm-15.46-4.76h-14.7L100.45,50Zm-75,0L61.09,49.7,58.58,61.63Zm20.86,0,3.17-15H94.88l3.16,15Z" style="fill:#f5f5f5"/><circle cx="45.84" cy="130.39" r="7.01" style="fill:#202121"/><path d="M45.84,128.15a2.25,2.25,0,1,1-2.24,2.24,2.24,2.24,0,0,1,2.24-2.24m0-4.76a7,7,0,1,0,7,7,7,7,0,0,0-7-7Z" style="fill:#f5f5f5"/><circle cx="115.65" cy="130.39" r="7.01" style="fill:#202121"/><path d="M115.65,128.15a2.25,2.25,0,1,1-2.25,2.24,2.25,2.25,0,0,1,2.25-2.24m0-4.76a7,7,0,1,0,7,7,7,7,0,0,0-7-7Z" style="fill:#f5f5f5"/><circle cx="127.06" cy="63.67" r="7.01" style="fill:#4795d1"/><path d="M127.06,61.42a2.25,2.25,0,1,1-2.24,2.25,2.25,2.25,0,0,1,2.24-2.25m0-4.76a7,7,0,1,0,7,7,7,7,0,0,0-7-7Z" style="fill:#f5f5f5"/><circle cx="32.59" cy="63.67" r="7.01" style="fill:#4795d1"/><path d="M32.59,61.42a2.25,2.25,0,1,1-2.25,2.25,2.25,2.25,0,0,1,2.25-2.25m0-4.76a7,7,0,1,0,7,7,7,7,0,0,0-7-7Z" style="fill:#f5f5f5"/></svg>