<svg id="ef50cf0e-8ee3-4c0b-aa63-e7531ee2e78c" data-name="Calque 1" xmlns="http://www.w3.org/2000/svg" viewBox="0 0 159.23 183.2"><polygon points="0.3 45.62 0.3 137.34 79.74 183.2 159.17 137.34 159.17 45.62 79.74 -0.25 0.3 45.62" style="fill:#4795d1"/><polygon points="159.17 137.34 79.74 183.2 0.3 137.34 79.74 91.48 159.17 137.34" style="fill:#f5f5f5"/><path d="M133.14,66.23,99.06,43l0-.11-.11,0L97,41.65H64.46l-2,1.28h0v0L26.33,66.23H57.54l-13.38,63.6,4.66,1,13.6-64.58H99.07l13.59,64.58,4.67-1-13.39-63.6Zm-15.48-4.77H102.94l-2.46-11.69Zm-75.13,0L61.06,49.52,58.55,61.46Zm20.89,0,3.17-15H94.9l3.16,15Z" style="fill:#202121"/><circle cx="45.79" cy="130.32" r="7.02" style="fill:#f5f5f5"/><path d="M45.79,128.07a2.25,2.25,0,1,1-2.24,2.25,2.25,2.25,0,0,1,2.24-2.25m0-4.77a7,7,0,1,0,7,7,7,7,0,0,0-7-7Z" style="fill:#202121"/><circle cx="115.69" cy="130.32" r="7.02" style="fill:#f5f5f5"/><path d="M115.69,128.07a2.25,2.25,0,1,1-2.24,2.25,2.25,2.25,0,0,1,2.24-2.25m0-4.77a7,7,0,1,0,7,7,7,7,0,0,0-7-7Z" style="fill:#202121"/><circle cx="126.97" cy="62.42" r="7.01" style="fill:#4795d1"/><path d="M127,60.18a2.25,2.25,0,1,1-2.25,2.24A2.24,2.24,0,0,1,127,60.18m0-4.77a7,7,0,1,0,7,7,7,7,0,0,0-7-7Z" style="fill:#202121"/><circle cx="32.52" cy="63.51" r="7.02" style="fill:#4795d1"/><path d="M32.52,61.26a2.25,2.25,0,1,1-2.24,2.25,2.25,2.25,0,0,1,2.24-2.25m0-4.77a7,7,0,1,0,7,7,7,7,0,0,0-7-7Z" style="fill:#202121"/></svg>